<svg xmlns="http://www.w3.org/2000/svg" width="1600" height="1000" viewBox="0 0 1600 1000" preserveAspectRatio="xMidYMid slice">
  <defs>
    <linearGradient id="sky" x1="0" y1="0" x2="0" y2="1">
      <stop offset="0%" stop-color="#EFF7FB"/>
      <stop offset="55%" stop-color="#E4F1F6"/>
      <stop offset="100%" stop-color="#DCEEF5"/>
    </linearGradient>
    <linearGradient id="wave1" x1="0" y1="0" x2="1" y2="0">
      <stop offset="0%" stop-color="#CDE5E8"/>
      <stop offset="100%" stop-color="#B8DCE3"/>
    </linearGradient>
    <linearGradient id="wave2" x1="0" y1="0" x2="1" y2="0">
      <stop offset="0%" stop-color="#9FCDD6"/>
      <stop offset="100%" stop-color="#7FA8B5"/>
    </linearGradient>
  </defs>
  <rect width="1600" height="1000" fill="url(#sky)"/>
  <!-- layered, very low-contrast wave bands across the bottom -->
  <path d="M0,760 C320,700 520,820 800,770 C1080,720 1300,810 1600,760 L1600,1000 L0,1000 Z" fill="url(#wave1)" opacity="0.45"/>
  <path d="M0,840 C300,790 560,890 860,840 C1120,798 1340,880 1600,838 L1600,1000 L0,1000 Z" fill="url(#wave2)" opacity="0.30"/>
  <path d="M0,910 C360,870 600,950 900,915 C1180,884 1380,945 1600,908 L1600,1000 L0,1000 Z" fill="#143A52" opacity="0.10"/>
</svg>
